<?xml version="1.0" encoding="utf-8"?>
<!-- Generator: Adobe Illustrator 19.2.0, SVG Export Plug-In . SVG Version: 6.00 Build 0)  -->
<svg version="1.1"
	 id="Layer_1" xmlns:cc="http://creativecommons.org/ns#" xmlns:dc="http://purl.org/dc/elements/1.1/" xmlns:inkscape="http://www.inkscape.org/namespaces/inkscape" xmlns:rdf="http://www.w3.org/1999/02/22-rdf-syntax-ns#" xmlns:sodipodi="http://sodipodi.sourceforge.net/DTD/sodipodi-0.dtd" xmlns:svg="http://www.w3.org/2000/svg"
	 xmlns="http://www.w3.org/2000/svg" xmlns:xlink="http://www.w3.org/1999/xlink" x="0px" y="0px" viewBox="0 0 100 100"
	 style="enable-background:new 0 0 100 100;" xml:space="preserve">
<style type="text/css">
	.st0{fill:#FFFFFF;}
</style>
<g>
	<path class="st0" d="M50,22.9c-14.9,0-27.1,12.2-27.1,27.1C22.9,65,35.1,77.1,50,77.1C64.9,77.1,77.1,65,77.1,50
		C77.1,35.1,64.9,22.9,50,22.9z M50,68.1C40,68.1,31.9,60,31.9,50c0-10.1,8-18.1,18.1-18.1c10,0,18.1,8.1,18.1,18.1S60,68.1,50,68.1
		z"/>
	<path class="st0" d="M76.6,16.3c-3.2,0-5.8,2.6-5.8,5.8s2.6,5.8,5.8,5.8s5.8-2.6,5.8-5.8C82.4,18.9,79.9,16.3,76.6,16.3z"/>
	<path class="st0" d="M71.2,0.3H28.7C13,0.3,0.3,13.1,0.3,28.7v42.5c0,15.7,12.7,28.4,28.4,28.4h42.5c15.7,0,28.4-12.7,28.4-28.4
		V28.7C99.6,13.1,86.9,0.3,71.2,0.3z M90.6,28.7v42.5c0,10.9-8.5,19.4-19.4,19.4H28.7c-10.9,0-19.4-8.5-19.4-19.4V28.7
		c0-10.9,8.5-19.4,19.4-19.4h42.5C82.1,9.3,90.6,17.9,90.6,28.7z"/>
</g>
</svg>
