<?xml version="1.0" encoding="utf-8"?>
<!-- Generator: Adobe Illustrator 19.2.0, SVG Export Plug-In . SVG Version: 6.00 Build 0)  -->
<svg version="1.1"
	 id="Layer_1" xmlns:cc="http://creativecommons.org/ns#" xmlns:dc="http://purl.org/dc/elements/1.1/" xmlns:inkscape="http://www.inkscape.org/namespaces/inkscape" xmlns:rdf="http://www.w3.org/1999/02/22-rdf-syntax-ns#" xmlns:sodipodi="http://sodipodi.sourceforge.net/DTD/sodipodi-0.dtd" xmlns:svg="http://www.w3.org/2000/svg"
	 xmlns="http://www.w3.org/2000/svg" xmlns:xlink="http://www.w3.org/1999/xlink" x="0px" y="0px" viewBox="0 0 100 100"
	 style="enable-background:new 0 0 100 100;" xml:space="preserve">
<style type="text/css">
	.st0{fill:#FFFFFF;}
</style>
<g transform="translate(-539.18 -568.86)">
	<path class="st0" d="M571.1,657.6c36.7,0,56.8-30.4,56.8-56.8c0-0.9,0-1.7-0.1-2.6c3.9-2.8,7.3-6.3,10-10.3
		c-3.6,1.6-7.4,2.7-11.5,3.1c4.1-2.5,7.3-6.4,8.8-11c-3.9,2.3-8.1,3.9-12.7,4.8c-3.6-3.9-8.8-6.3-14.6-6.3c-11,0-20,8.9-20,20
		c0,1.6,0.2,3.1,0.5,4.6c-16.6-0.8-31.3-8.8-41.1-20.9c-1.7,2.9-2.7,6.4-2.7,10c0,6.9,3.5,13,8.9,16.6c-3.3-0.1-6.4-1-9-2.5
		c0,0.1,0,0.2,0,0.3c0,9.7,6.9,17.7,16,19.6c-1.7,0.5-3.4,0.7-5.3,0.7c-1.3,0-2.5-0.1-3.8-0.4c2.5,7.9,9.9,13.7,18.6,13.9
		c-6.8,5.4-15.4,8.5-24.8,8.5c-1.6,0-3.2-0.1-4.8-0.3C549.4,654.3,559.9,657.6,571.1,657.6"/>
</g>
</svg>
