<?xml version="1.0" encoding="utf-8"?>
<!-- Generator: Adobe Illustrator 19.2.0, SVG Export Plug-In . SVG Version: 6.00 Build 0)  -->
<svg version="1.1" id="Layer_1" xmlns="http://www.w3.org/2000/svg" xmlns:xlink="http://www.w3.org/1999/xlink" x="0px" y="0px"
	 viewBox="0 0 100 100" style="enable-background:new 0 0 100 100;" xml:space="preserve">
<style type="text/css">
	.st0{fill:#003EFF;}
</style>
<path class="st0" d="M94.6,71.3L73.3,50l21.3-21.3c3.1-3.1,4.8-7.3,4.8-11.7s-1.7-8.5-4.8-11.7c-6.4-6.4-16.9-6.4-23.3,0L50,26.7
	L28.7,5.4c-6.4-6.4-16.9-6.4-23.3,0C2.3,8.5,0.5,12.6,0.5,17c0,4.4,1.7,8.5,4.8,11.7L26.7,50L5.4,71.3C2.2,74.4,0.5,78.6,0.5,83
	s1.7,8.5,4.8,11.7c3.1,3.1,7.2,4.8,11.7,4.8s8.5-1.7,11.7-4.8L50,73.3l21.3,21.3c3.1,3.1,7.3,4.8,11.7,4.8c4.4,0,8.5-1.7,11.7-4.8
	c3.1-3.1,4.8-7.3,4.8-11.7C99.5,78.6,97.8,74.4,94.6,71.3z"/>
</svg>
